<svg xmlns="http://www.w3.org/2000/svg" width="1024" height="1024"><path fill="#1297fe" d="m466 211 3.363 1.3c8.475 3.377 8.475 3.377 9.637 5.7a429 429 0 0 0 5 2c7.204 4.304 13.828 9.301 20.246 14.691a296 296 0 0 0 5.852 4.774l3.027 2.41 2.758 2.18C518 246 518 246 519 249c1.319.695 2.655 1.358 4 2 5.493 4.825 10.256 10.455 15 16l2.754 3.16c6.241 7.18 12.223 14.495 17.938 22.102 1.396 1.855 2.803 3.7 4.21 5.547C569.896 307.013 576.546 316.41 583 326l1.37 2.03C598 348.278 598 348.278 598 351c-16.726-3.831-30.486-8.54-43.844-19.531C546.767 325.56 538.791 320.357 531 315l-1.84-1.268c-37.23-26.15-37.23-26.15-80.597-32.107-4.669 1.124-8.4 3.439-12.399 6.035C434 289 434 289 431 290c-1.066 1.84-1.066 1.84-2 4a204 204 0 0 1-2.812 4.125C416.804 312.155 412.66 327.545 410 344l1.881-.213c8.022-.826 15.99-.95 24.049-.955l4.318-.01q4.521-.009 9.042-.007 4.536 0 9.074-.02c24.815-.112 49.578.434 74.199 3.892l3.664.508c47.57 6.86 100.361 17.976 142.94 40.975 2.105 1.105 2.105 1.105 5.833.83l1-5h2l.695-3.402c1.735-7.802 4.012-15.471 6.18-23.16 5.606-19.585 5.606-19.585 10.125-39.438q.63-2.925 1.27-5.848c3.653-16.992 6.507-33.907 8.73-51.152h2q.724 4.187 1.438 8.375l.408 2.348c1.577 9.31 2.306 18.6 2.716 28.027l.131 2.688c.568 12.623.356 25.2-.38 37.812l-.122 2.108c-1.239 20.746-4.74 41.169-8.191 61.642l1.582.927C731.131 414.656 747.024 424.972 762 437l1.58 1.263C781.764 452.914 797.087 469.246 808 490l1.5 2.766c6.79 13.498 8.147 28.84 4.313 43.421-2.893 8.51-7.278 15.784-13.493 22.254-1.535 1.473-1.535 1.473-1.32 3.559a195 195 0 0 1-5 3 572 572 0 0 0-5.5 4.5c-13.03 10.322-28.757 17.394-44.5 22.5l-1.947.646c-17.88 5.858-36.368 9.177-54.99 11.604l-3.765.494c-16.805 2.084-33.45 2.396-50.36 2.318q-2.919-.008-5.838-.013-7.05-.017-14.1-.049c0-4.044 1.38-4.71 4.188-7.562 4.676-4.919 8.725-10.182 12.687-15.688l1.657-2.291c2.395-3.36 4.664-6.707 6.663-10.318 2.096-3.647 3.275-5.617 7.307-6.997l2.994-.687 3.352-.802 3.59-.842c19.627-4.864 43.506-11.823 58.214-26.598C715 534 715 534 717 534l.816-1.738c1.21-2.313 2.603-4.328 4.121-6.45 4.988-7.462 7.225-14.818 6.063-23.812-4.33-18.992-17.306-33.518-33.305-43.96L693 457c-4.43 8.286-8.83 16.58-13 25-16.782 33.747-37.43 64.61-61 94l-2.293 2.883c-4.518 5.613-9.238 10.982-14.166 16.235-2.572 2.721-2.572 2.721-4.541 5.882h-2l-.762 1.754c-1.394 2.529-2.976 4.18-5.05 6.183l-2.02 1.965L586 613a1254 1254 0 0 0-7.832 7.867C572.622 626.474 567.035 631.916 561 637l-2.781 2.41C546.764 649.297 534.853 658.98 522 667c2.623 4.856 5.491 9.082 9.125 13.25l1.433 1.673c4.095 4.754 8.34 9.364 12.641 13.932C547 698 547 698 547 700l3 1c1.613 1.672 1.613 1.672 3.313 3.75 3.002 3.547 6.073 6.343 9.687 9.25l5 5c15.042 14.446 32.529 26.387 51 36-14.956 5.214-39.139-5.04-52.534-11.477C552.711 736.486 539.521 727.285 528 717l-1.478-1.315A541 541 0 0 1 516 706l-2.219-2.09c-6.247-6.06-13.214-12.876-16.781-20.91-5.449 2.944-10.868 5.922-16.224 9.031-38.583 22.198-86.087 42.101-131.342 32.188-9.278-2.59-19.086-6.857-26.434-13.219v-2l-1.723-.629c-10.2-6.14-15.727-22.48-18.527-33.371-1.524-6.32-2.52-12.502-2.75-19l-.156-2.719c-1.92-60.79 28.971-124.88 58.719-176.093l1.191-2.065c2.078-3.496 4.22-6.399 7.246-9.123l.425 2.13a1954 1954 0 0 0 3.262 15.933l.79 3.782c1.796 8.375 3.915 16.539 6.87 24.585 2.064 6.086 1.288 10.445-.347 16.57q-.705 2.98-1.402 5.96l-.755 3.148c-6.811 28.529-13.889 61.131.536 88.51 5.846 9.461 14.352 16.036 25.183 18.632 18.697 3.097 35.21-2.278 52.41-9.113C457 635 457 635 459 635c-2.84-5.133-5.947-9.949-9.312-14.75C445.3 613.926 441.06 607.54 437 601l-1.852-2.93c-5.286-8.446-10.16-17.091-14.926-25.84a583 583 0 0 0-3.402-6.105C385.187 509.162 368.468 443.328 361 379c-37.31 6.484-77.14 15.585-110.137 35.004C249 415 249 415 247 415c1.532-3.63 3.718-5.986 6.5-8.75l2.406-2.422C258 402 258 402 260 402v-2a126 126 0 0 1 6.688-5.125l2.081-1.5c11.658-8.317 23.863-14.908 36.68-21.25l2.51-1.242C310 370 310 370 312 370l1-2c1.927-.73 1.927-.73 4.426-1.41 3.573-1.011 7.103-2.073 10.617-3.274l2.544-.867 2.6-.887A322 322 0 0 1 359 354c-.01-.702-.02-1.403-.032-2.126-.386-30.15.452-60.06 10.032-88.874l1.117-3.39c7.743-21.68 20.863-39.014 41.743-49.274 4.427-2.095 8.315-3.545 13.14-4.336l2.293-.398c13.003-1.77 26.627.516 38.707 5.398M360 367v8h1v-8zm48 8c1.468 86.22 28.831 175.097 78 246 3.257-.539 5.743-1.199 8.531-2.969l1.935-1.216 2.034-1.315 2.15-1.37A445 445 0 0 0 520 601l2.2-1.58c10.296-7.416 20.264-15.049 29.8-23.42l2.219-1.918c4.514-3.914 8.943-7.923 13.37-11.934a237 237 0 0 1 6.536-5.586c.949-.845 1.898-1.69 2.875-2.562v-2l1.793-.805c5.725-3.1 9.947-8.973 14.14-13.851 2.048-2.322 4.156-4.578 6.278-6.83 6.28-6.686 11.997-13.675 17.577-20.95 1.674-2.16 3.414-4.265 5.15-6.377 24.715-30.51 24.715-30.51 42.062-65.187-70.84-45.273-155.986-64.856-239.312-65.25l-3.703-.028-3.41.012-2.982.007c-2.662.266-4.312.9-6.593 2.259"/><path fill="#1e90f4" d="M303 621h1q.04 3.719.063 7.438l.025 2.142c.009 1.807-.036 3.614-.088 5.42l-1 1c-.1 1.868-.13 3.74-.133 5.61l-.004 3.476.012 3.664-.012 3.617.004 3.492.004 3.203c.121 2.76.535 5.246 1.129 7.938.117 2.677.045 5.318 0 8-2.188-3.613-2.65-7.318-3.125-11.437l-.253-2.163c-1.427-13.058-1.833-28.768 2.378-41.4"/><path fill="#2b96ee" d="M263 398c0 3 0 3-2.187 5.262L258 405.687l-2.812 2.45L253 410l1 2c-4.75 3-4.75 3-7 3 1.532-3.63 3.718-5.986 6.5-8.75l2.406-2.422C258 402 258 402 260 402v-2z"/><path fill="#2794f1" d="m611 751 8 4c-3.786.946-5.953.97-9.75.563l-2.984-.31L604 755c2-2 2-2 4.625-2.125L611 753z"/><path fill="#1b91f9" d="m701.188 599.938 2.73.027L706 600c-3.162 2.108-4.507 2.338-8.187 2.625l-2.731.227L693 603v-2c3.015-1.005 5.042-1.103 8.188-1.062"/><path fill="#1790f6" d="M595 534c0 3.59-.664 4.109-3 6.688l-1.687 1.886L589 544l-2-1 3.438-3.937 1.933-2.215c.854-.97 1.716-1.935 2.629-2.848"/><path fill="#1991f9" d="m448 704 3 1c2.143-.39 2.143-.39 4-1-1.974 2.523-2.967 2.993-6.187 3.688L446 708l2-1z"/><path fill="#178ff8" d="M706 316c1.456 4.52.27 7.516-1 12h-1a280 280 0 0 1-.125-4.312l-.07-2.426C704 319 704 319 706 316"/><path fill="#249ef9" d="m664 607 3 1Z"/><path fill="#219cff" d="m505 381 3 1Z"/><path fill="#5297d1" d="m616 757 2 1Z"/><path fill="#2b9af3" d="m360 727 2 1Z"/><path fill="#2a9cf4" d="m355 726 2 1Z"/><path fill="#269df9" d="m420 719 2 1Z"/><path fill="#339bf1" d="m304 689 2 1Z"/><path fill="#2c9df6" d="m753 589 2 1Z"/><path fill="#219efc" d="m681 552 2 1Z"/><path fill="#219bfd" d="m576 399 2 1Z"/><path fill="#229bfe" d="m570 397 2 1Z"/><path fill="#209bfa" d="m552 391 2 1Z"/><path fill="#279efb" d="m311 391 2 1Z"/><path fill="#269dfd" d="m535 387 2 1Z"/><path fill="#229dfe" d="m352 381 2 1Z"/><path fill="#1d9afb" d="m480 287 2 1Z"/></svg>